<svg width="85" height="38" viewBox="0 0 85 38" fill="none" xmlns="http://www.w3.org/2000/svg">
  <path
    d="M57 15H73.8861C79.409 15 83.8861 19.4772 83.8861 25V27C83.8861 32.5228 79.409 37 73.8861 37H67C61.4772 37 57 32.5228 57 27V15Z"
    fill="url(#paint0_linear_189_24)" />
  <path
    d="M65.6901 29.12C65.0101 29.12 64.4741 28.94 64.0821 28.58C63.6901 28.22 63.4941 27.736 63.4941 27.128C63.4941 26.48 63.7101 25.98 64.1421 25.628C64.5741 25.276 65.1861 25.1 65.9781 25.1H67.6221V24.536C67.6221 24.216 67.5181 23.968 67.3101 23.792C67.1021 23.608 66.8181 23.516 66.4581 23.516C66.1301 23.516 65.8581 23.588 65.6421 23.732C65.4261 23.876 65.2981 24.072 65.2581 24.32H63.7941C63.8661 23.696 64.1461 23.2 64.6341 22.832C65.1221 22.464 65.7461 22.28 66.5061 22.28C67.3141 22.28 67.9501 22.484 68.4141 22.892C68.8861 23.292 69.1221 23.836 69.1221 24.524V29H67.6701V27.848H67.4301L67.6701 27.524C67.6701 28.012 67.4901 28.4 67.1301 28.688C66.7701 28.976 66.2901 29.12 65.6901 29.12ZM66.1821 27.992C66.6061 27.992 66.9501 27.884 67.2141 27.668C67.4861 27.452 67.6221 27.172 67.6221 26.828V26.024H66.0021C65.6981 26.024 65.4541 26.112 65.2701 26.288C65.0861 26.464 64.9941 26.696 64.9941 26.984C64.9941 27.296 65.0981 27.544 65.3061 27.728C65.5221 27.904 65.8141 27.992 66.1821 27.992ZM70.9294 29V27.632H73.2334V23.756H71.2294V22.4H74.6734V27.632H76.7134V29H70.9294ZM73.8334 21.296C73.5294 21.296 73.2894 21.22 73.1134 21.068C72.9374 20.908 72.8494 20.696 72.8494 20.432C72.8494 20.168 72.9374 19.96 73.1134 19.808C73.2894 19.648 73.5294 19.568 73.8334 19.568C74.1374 19.568 74.3774 19.648 74.5534 19.808C74.7294 19.96 74.8174 20.168 74.8174 20.432C74.8174 20.696 74.7294 20.908 74.5534 21.068C74.3774 21.22 74.1374 21.296 73.8334 21.296Z"
    fill="white" />
  <path
    d="M1 11C1 5.47715 5.47715 1 11 1H46.8277C52.3505 1 56.8277 5.47715 56.8277 11V23H11C5.47716 23 1 18.5228 1 13V11Z"
    fill="url(#paint1_linear_189_24)" />
  <path
    d="M11.2088 16.12C10.6488 16.12 10.1568 16.016 9.73277 15.808C9.31677 15.592 8.99277 15.292 8.76077 14.908C8.52877 14.516 8.41277 14.056 8.41277 13.528V11.872C8.41277 11.336 8.52877 10.876 8.76077 10.492C8.99277 10.108 9.31677 9.812 9.73277 9.604C10.1568 9.388 10.6488 9.28 11.2088 9.28C12.0408 9.28 12.7048 9.496 13.2008 9.928C13.6968 10.352 13.9568 10.932 13.9808 11.668H12.4808C12.4568 11.324 12.3328 11.06 12.1088 10.876C11.8928 10.684 11.5928 10.588 11.2088 10.588C10.8088 10.588 10.4928 10.7 10.2608 10.924C10.0288 11.14 9.91277 11.452 9.91277 11.86V13.528C9.91277 13.936 10.0288 14.252 10.2608 14.476C10.4928 14.7 10.8088 14.812 11.2088 14.812C11.5928 14.812 11.8928 14.72 12.1088 14.536C12.3328 14.344 12.4568 14.076 12.4808 13.732H13.9808C13.9568 14.468 13.6968 15.052 13.2008 15.484C12.7048 15.908 12.0408 16.12 11.2088 16.12ZM15.6921 16V7.24H17.1921V9.4L17.1561 10.66H17.5641L17.1561 11.008C17.1561 10.464 17.3121 10.04 17.6241 9.736C17.9441 9.432 18.3801 9.28 18.9321 9.28C19.5801 9.28 20.0961 9.496 20.4801 9.928C20.8721 10.36 21.0681 10.94 21.0681 11.668V16H19.5681V11.824C19.5681 11.424 19.4641 11.116 19.2561 10.9C19.0481 10.684 18.7561 10.576 18.3801 10.576C18.0121 10.576 17.7201 10.688 17.5041 10.912C17.2961 11.136 17.1921 11.456 17.1921 11.872V16H15.6921ZM24.8314 16.12C24.1514 16.12 23.6154 15.94 23.2234 15.58C22.8314 15.22 22.6354 14.736 22.6354 14.128C22.6354 13.48 22.8514 12.98 23.2834 12.628C23.7154 12.276 24.3274 12.1 25.1194 12.1H26.7634V11.536C26.7634 11.216 26.6594 10.968 26.4514 10.792C26.2434 10.608 25.9594 10.516 25.5994 10.516C25.2714 10.516 24.9994 10.588 24.7834 10.732C24.5674 10.876 24.4394 11.072 24.3994 11.32H22.9354C23.0074 10.696 23.2874 10.2 23.7754 9.832C24.2634 9.464 24.8874 9.28 25.6474 9.28C26.4554 9.28 27.0914 9.484 27.5554 9.892C28.0274 10.292 28.2634 10.836 28.2634 11.524V16H26.8114V14.848H26.5714L26.8114 14.524C26.8114 15.012 26.6314 15.4 26.2714 15.688C25.9114 15.976 25.4314 16.12 24.8314 16.12ZM25.3234 14.992C25.7474 14.992 26.0914 14.884 26.3554 14.668C26.6274 14.452 26.7634 14.172 26.7634 13.828V13.024H25.1434C24.8394 13.024 24.5954 13.112 24.4114 13.288C24.2274 13.464 24.1354 13.696 24.1354 13.984C24.1354 14.296 24.2394 14.544 24.4474 14.728C24.6634 14.904 24.9554 14.992 25.3234 14.992ZM30.2867 16V9.4H31.7027V10.66H32.0747L31.6307 11.428C31.6307 10.716 31.7907 10.18 32.1107 9.82C32.4307 9.46 32.9027 9.28 33.5267 9.28C34.2387 9.28 34.7987 9.5 35.2067 9.94C35.6147 10.38 35.8187 10.988 35.8187 11.764V12.244H34.2467V11.872C34.2467 11.448 34.1347 11.12 33.9107 10.888C33.6947 10.656 33.3947 10.54 33.0107 10.54C32.6187 10.54 32.3147 10.656 32.0987 10.888C31.8907 11.12 31.7867 11.448 31.7867 11.872V16H30.2867ZM40.674 16C40.042 16 39.546 15.824 39.186 15.472C38.834 15.12 38.658 14.636 38.658 14.02V10.756H36.87V9.4H38.658V7.54H40.17V9.4H42.702V10.756H40.17V14.02C40.17 14.436 40.374 14.644 40.782 14.644H42.582V16H40.674ZM44.6773 16V9.4H46.0933V10.66H46.4653L46.0213 11.428C46.0213 10.716 46.1813 10.18 46.5013 9.82C46.8213 9.46 47.2933 9.28 47.9173 9.28C48.6293 9.28 49.1893 9.5 49.5973 9.94C50.0053 10.38 50.2093 10.988 50.2093 11.764V12.244H48.6373V11.872C48.6373 11.448 48.5253 11.12 48.3013 10.888C48.0853 10.656 47.7853 10.54 47.4013 10.54C47.0093 10.54 46.7053 10.656 46.4893 10.888C46.2813 11.12 46.1773 11.448 46.1773 11.872V16H44.6773Z"
    fill="white" />
  <defs>
    <linearGradient id="paint0_linear_189_24" x1="57" y1="26" x2="83.8861" y2="26" gradientUnits="userSpaceOnUse">
      <stop stop-color="#14532D" />
      <stop offset="1" stop-color="#1BBB55" />
    </linearGradient>
    <linearGradient id="paint1_linear_189_24" x1="1" y1="12" x2="56.8277" y2="12" gradientUnits="userSpaceOnUse">
      <stop stop-color="#581C87" />
      <stop offset="1" stop-color="#8E4BD4" />
    </linearGradient>
  </defs>
</svg>
